<svg width="214" height="148" viewBox="0 0 214 148" fill="none" xmlns="http://www.w3.org/2000/svg">
<path d="M0 147.5C12.6667 137.167 22.6667 127.167 30 117.5C37.3333 107.5 42.8333 96.6667 46.5 85H45.5C34.8333 85 25.5 81.5 17.5 74.5C9.83333 67.5 6 57.8333 6 45.5V43.5C6 31.5 9.83333 21.3333 17.5 13C25.1667 4.33333 36.3333 0 51 0C65.6667 0 76.8333 4.33333 84.5 13C92.1667 21.3333 96 31.5 96 43.5V51C96 60.3333 94.5 69.5 91.5 78.5C88.8333 87.5 85 96.1667 80 104.5C75.3333 112.5 70 120.167 64 127.5C58 134.833 51.8333 141.5 45.5 147.5H0ZM118 147.5C130.667 137.167 140.667 127.167 148 117.5C155.333 107.5 160.833 96.6667 164.5 85H163.5C152.833 85 143.5 81.5 135.5 74.5C127.833 67.5 124 57.8333 124 45.5V43.5C124 31.5 127.833 21.3333 135.5 13C143.167 4.33333 154.333 0 169 0C183.667 0 194.833 4.33333 202.5 13C210.167 21.3333 214 31.5 214 43.5V51C214 60.3333 212.5 69.5 209.5 78.5C206.833 87.5 203 96.1667 198 104.5C193.333 112.5 188 120.167 182 127.5C176 134.833 169.833 141.5 163.5 147.5H118Z" fill="currentColor"/>
</svg>
