<svg width="244" height="254" viewBox="0 0 244 254" fill="none" xmlns="http://www.w3.org/2000/svg">
<path d="M124.449 201.75C112.783 201.75 102.516 199.883 93.6492 196.15C85.0159 192.183 77.6659 186.817 71.5992 180.05C65.5326 173.283 60.9826 165.35 57.9492 156.25C54.9159 147.15 53.3992 137.35 53.3992 126.85C53.3992 114.95 55.2659 104.333 58.9992 95C62.9659 85.6667 68.3326 77.85 75.0992 71.55C81.8659 65.25 89.7992 60.4667 98.8992 57.2C107.999 53.7 117.916 51.95 128.649 51.95C137.049 51.95 144.516 53 151.049 55.1C157.583 56.9667 163.066 59.65 167.499 63.15C171.933 66.65 175.199 70.7333 177.299 75.4C179.633 79.8333 180.799 84.6167 180.799 89.75C180.799 96.2833 178.933 101.417 175.199 105.15C171.466 108.883 166.333 110.75 159.799 110.75C153.733 110.75 148.949 109 145.449 105.5C141.949 101.767 140.199 96.9833 140.199 91.15C140.199 86.7167 141.133 83.1 142.999 80.3C144.866 77.2667 147.433 74.9333 150.699 73.3V72.6C148.833 71.9 146.616 71.3167 144.049 70.85C141.483 70.15 137.983 69.8 133.549 69.8C122.349 69.8 113.599 73.3 107.299 80.3C101.233 87.0667 98.1992 96.75 98.1992 109.35V137.7C98.1992 150.067 101.466 159.283 107.999 165.35C114.533 171.417 123.049 174.45 133.549 174.45C143.116 174.45 150.583 172.117 155.949 167.45C161.316 162.55 165.516 156.833 168.549 150.3L183.949 159.4C182.083 164.067 179.516 168.967 176.249 174.1C173.216 179 169.249 183.55 164.349 187.75C159.449 191.717 153.733 195.1 147.199 197.9C140.666 200.467 133.083 201.75 124.449 201.75ZM121.649 232.9C135.883 232.9 148.949 230.567 160.849 225.9C172.983 221 183.366 214.35 191.999 205.95C200.633 197.317 207.283 187.283 211.949 175.85C216.849 164.417 219.299 152.05 219.299 138.75V114.95C219.299 101.65 216.849 89.2833 211.949 77.85C207.283 66.4167 200.633 56.5 191.999 48.1C183.366 39.4667 172.983 32.8167 160.849 28.15C148.949 23.25 135.883 20.8 121.649 20.8C107.416 20.8 94.2326 23.25 82.0992 28.15C70.1992 32.8167 59.9326 39.4667 51.2992 48.1C42.6659 56.5 35.8992 66.4167 30.9992 77.85C26.3326 89.2833 23.9992 101.65 23.9992 114.95V138.75C23.9992 152.05 26.3326 164.417 30.9992 175.85C35.8992 187.283 42.6659 197.317 51.2992 205.95C59.9326 214.35 70.1992 221 82.0992 225.9C94.2326 230.567 107.416 232.9 121.649 232.9ZM121.649 253.2C103.916 253.2 87.5826 250.283 72.6492 244.45C57.9492 238.617 45.2326 230.217 34.4992 219.25C23.7659 208.283 15.3659 195.1 9.29922 179.7C3.23255 164.067 0.199219 146.45 0.199219 126.85C0.199219 107.25 3.23255 89.75 9.29922 74.35C15.3659 58.7167 23.7659 45.4167 34.4992 34.45C45.2326 23.4833 57.9492 15.0833 72.6492 9.24999C87.5826 3.41666 103.916 0.5 121.649 0.5C139.383 0.5 155.599 3.41666 170.299 9.24999C185.233 15.0833 198.066 23.4833 208.799 34.45C219.533 45.4167 227.933 58.7167 233.999 74.35C240.066 89.75 243.099 107.25 243.099 126.85C243.099 146.45 240.066 164.067 233.999 179.7C227.933 195.1 219.533 208.283 208.799 219.25C198.066 230.217 185.233 238.617 170.299 244.45C155.599 250.283 139.383 253.2 121.649 253.2Z" fill="currentColor"/>
</svg>
