<svg width="358" height="210" viewBox="0 0 358 210" fill="none" xmlns="http://www.w3.org/2000/svg">
<path d="M0.300781 190.202H21.3008V20.4016H0.300781V0.601562H167.401V56.4016H132.601V22.2016H69.9008V90.0016H109.501V72.0016H131.701V129.602H109.501V111.602H69.9008V188.402H135.001V148.202H169.801V210.002H0.300781V190.202Z" fill="currentColor"/>
<path d="M189.062 190.202H205.562L246.962 135.302L203.462 72.6016H189.962V52.8016H275.162V72.6016H257.162L284.162 111.602H285.962L313.862 72.6016H296.762V52.8016H356.462V72.6016H339.962L298.262 127.502L343.562 190.202H357.062V210.002H270.962V190.202H288.962L261.062 151.202H259.262L231.662 190.202H248.762V210.002H189.062V190.202Z" fill="currentColor"/>
</svg>
