<svg  width="100" height="50" viewBox="0 0 220 214" fill="none" xmlns="http://www.w3.org/2000/svg">
<path d="M0.3 190.2H21.3V20.4H0.3V0.599996H167.4V56.4H132.6V22.2H69.9V94.5H109.5V76.5H131.7V134.1H109.5V116.1H69.9V190.2H98.4V210H0.3V190.2ZM192.019 213.6C183.219 213.6 176.519 211.1 171.919 206.1C167.319 200.9 165.019 194.7 165.019 187.5V186.3C165.019 179.1 167.319 173 171.919 168C176.519 162.8 183.219 160.2 192.019 160.2C200.819 160.2 207.519 162.8 212.119 168C216.719 173 219.019 179.1 219.019 186.3V187.5C219.019 194.7 216.719 200.9 212.119 206.1C207.519 211.1 200.819 213.6 192.019 213.6Z" fill="currentColor"/>
</svg>
