<svg width="215" height="148" viewBox="0 0 215 148" fill="none" xmlns="http://www.w3.org/2000/svg">
<path d="M45.5 147.5C30.8333 147.5 19.6667 143.333 12 135C4.33333 126.333 0.5 116 0.5 104V96.5C0.5 87.1667 1.83333 78.1667 4.5 69.5C7.5 60.5 11.3333 51.8333 16 43.5C21 35.1667 26.5 27.3333 32.5 20C38.5 12.6667 44.6667 6 51 0H96.5C83.8333 10.3333 73.8333 20.5 66.5 30.5C59.1667 40.1667 53.6667 50.8333 50 62.5H51C61.6667 62.5 70.8333 66 78.5 73C86.5 80 90.5 89.6667 90.5 102V104C90.5 116 86.6667 126.333 79 135C71.3333 143.333 60.1667 147.5 45.5 147.5ZM163.5 147.5C148.833 147.5 137.667 143.333 130 135C122.333 126.333 118.5 116 118.5 104V96.5C118.5 87.1667 119.833 78.1667 122.5 69.5C125.5 60.5 129.333 51.8333 134 43.5C139 35.1667 144.5 27.3333 150.5 20C156.5 12.6667 162.667 6 169 0H214.5C201.833 10.3333 191.833 20.5 184.5 30.5C177.167 40.1667 171.667 50.8333 168 62.5H169C179.667 62.5 188.833 66 196.5 73C204.5 80 208.5 89.6667 208.5 102V104C208.5 116 204.667 126.333 197 135C189.333 143.333 178.167 147.5 163.5 147.5Z" fill="currentColor"/>
</svg>
