<svg width="797" height="304" viewBox="0 0 797 304" fill="none" xmlns="http://www.w3.org/2000/svg">
<path d="M15.5391 144V0.5625H40.8398V144H15.5391ZM109.77 146.988C101.801 146.988 94.3633 144.93 87.457 140.812C80.6836 136.695 75.1719 130.719 70.9219 122.883C66.8047 115.047 64.7461 105.551 64.7461 94.3945C64.7461 83.1055 66.8047 73.4766 70.9219 65.5078C75.1719 57.5391 80.8164 51.4297 87.8555 47.1797C95.0273 42.9297 102.93 40.8047 111.562 40.8047C117.141 40.8047 122.652 42.0664 128.098 44.5898C133.676 47.1133 138.324 50.5 142.043 54.75V43.3945H167.344V144H142.043V127.066C139.121 132.512 134.871 137.227 129.293 141.211C123.715 145.062 117.207 146.988 109.77 146.988ZM116.145 121.688C120.66 121.688 124.844 120.492 128.695 118.102C132.68 115.711 135.934 112.324 138.457 107.941C140.98 103.559 142.176 98.3789 142.043 92.4023V78.0586C138.457 74.207 134.539 71.1523 130.289 68.8945C126.172 66.6367 121.656 65.5078 116.742 65.5078C111.43 65.5078 106.848 66.9023 102.996 69.6914C99.2773 72.3477 96.3555 75.8672 94.2305 80.25C92.1055 84.6328 91.043 89.3477 91.043 94.3945C91.043 99.3086 92.1055 103.891 94.2305 108.141C96.3555 112.258 99.2773 115.578 102.996 118.102C106.848 120.492 111.23 121.688 116.145 121.688ZM255.996 146.988C248.559 146.988 242.051 145.062 236.473 141.211C230.895 137.227 226.645 132.512 223.723 127.066V144H198.422V0.5625H223.723V54.75C227.441 50.5 232.023 47.1133 237.469 44.5898C243.047 42.0664 248.625 40.8047 254.203 40.8047C262.836 40.8047 270.672 42.9297 277.711 47.1797C284.883 51.4297 290.527 57.5391 294.645 65.5078C298.895 73.4766 301.02 83.1055 301.02 94.3945C301.02 105.551 298.961 115.047 294.844 122.883C290.727 130.719 285.215 136.695 278.309 140.812C271.535 144.93 264.098 146.988 255.996 146.988ZM249.621 121.488C254.668 121.488 259.051 120.293 262.77 117.902C266.488 115.379 269.41 112.059 271.535 107.941C273.66 103.824 274.723 99.3086 274.723 94.3945C274.723 89.3477 273.66 84.6328 271.535 80.25C269.41 75.8672 266.422 72.3477 262.57 69.6914C258.852 67.0352 254.336 65.707 249.023 65.707C244.109 65.707 239.594 66.8359 235.477 69.0938C231.359 71.2188 227.441 74.207 223.723 78.0586V92.4023C223.723 98.3789 224.918 103.559 227.309 107.941C229.832 112.324 233.086 115.711 237.07 118.102C241.055 120.359 245.238 121.488 249.621 121.488ZM352.617 146.988C348.102 146.988 343.652 146.457 339.27 145.395C334.887 144.465 330.836 143.203 327.117 141.609C323.531 140.016 320.609 138.422 318.352 136.828V114.715C320.875 116.441 323.93 118.102 327.516 119.695C331.102 121.289 334.82 122.617 338.672 123.68C342.523 124.609 346.043 125.074 349.23 125.074C354.277 125.074 358.129 124.145 360.785 122.285C363.574 120.426 364.969 117.902 364.969 114.715C364.969 112.191 363.84 110.199 361.582 108.738C359.324 107.277 356.004 105.816 351.621 104.355L339.27 99.9727C331.699 97.4492 326.387 93.8633 323.332 89.2148C320.41 84.5664 318.949 79.0547 318.949 72.6797C318.949 66.3047 320.543 60.793 323.73 56.1445C327.051 51.3633 331.633 47.6445 337.477 44.9883C343.453 42.1992 350.16 40.8047 357.598 40.8047C363.84 40.8047 369.617 41.7344 374.93 43.5938C380.375 45.3203 384.492 47.4453 387.281 49.9688V72.2812C384.227 70.1562 380.375 68.0977 375.727 66.1055C371.211 64.1133 366.43 63.1172 361.383 63.1172C356.602 63.1172 352.816 64.1797 350.027 66.3047C347.238 68.4297 345.844 70.9531 345.844 73.875C345.844 76 346.641 77.9922 348.234 79.8516C349.961 81.5781 353.016 83.1055 357.398 84.4336L368.754 88.2188C376.59 90.4766 382.367 93.8633 386.086 98.3789C389.805 102.762 391.664 108.207 391.664 114.715C391.664 120.824 389.871 126.336 386.285 131.25C382.832 136.164 378.117 140.016 372.141 142.805C366.297 145.594 359.789 146.988 352.617 146.988ZM460.195 146.988C452.758 146.988 445.785 145.727 439.277 143.203C432.77 140.547 426.992 136.895 421.945 132.246C417.031 127.598 413.18 122.086 410.391 115.711C407.602 109.336 406.207 102.363 406.207 94.793C406.207 84.9648 408.398 76 412.781 67.8984C417.164 59.6641 423.207 53.0898 430.91 48.1758C438.613 43.2617 447.379 40.8047 457.207 40.8047C467.035 40.8047 475.469 42.9297 482.508 47.1797C489.68 51.4297 495.125 57.3398 498.844 64.9102C502.695 72.3477 504.621 80.9805 504.621 90.8086V101.566H429.516V84.2344H480.316C480.051 79.3203 478.723 75.3359 476.332 72.2812C473.941 69.0938 471.02 66.7695 467.566 65.3086C464.113 63.7148 460.461 62.918 456.609 62.918C451.43 62.918 446.914 64.2461 443.062 66.9023C439.344 69.5586 436.422 73.2773 434.297 78.0586C432.172 82.8398 431.109 88.418 431.109 94.793C431.109 100.504 432.371 105.551 434.895 109.934C437.418 114.316 440.938 117.77 445.453 120.293C450.102 122.816 455.348 124.078 461.191 124.078C468.629 124.078 475.27 122.617 481.113 119.695C487.09 116.773 491.805 113.785 495.258 110.73V134.238C493.266 136.098 490.477 138.023 486.891 140.016C483.305 142.008 479.188 143.668 474.539 144.996C470.023 146.324 465.242 146.988 460.195 146.988ZM222.328 296.988C217.812 296.988 213.363 296.457 208.98 295.395C204.598 294.465 200.547 293.203 196.828 291.609C193.242 290.016 190.32 288.422 188.062 286.828V264.715C190.586 266.441 193.641 268.102 197.227 269.695C200.812 271.289 204.531 272.617 208.383 273.68C212.234 274.609 215.754 275.074 218.941 275.074C223.988 275.074 227.84 274.145 230.496 272.285C233.285 270.426 234.68 267.902 234.68 264.715C234.68 262.191 233.551 260.199 231.293 258.738C229.035 257.277 225.715 255.816 221.332 254.355L208.98 249.973C201.41 247.449 196.098 243.863 193.043 239.215C190.121 234.566 188.66 229.055 188.66 222.68C188.66 216.305 190.254 210.793 193.441 206.145C196.762 201.363 201.344 197.645 207.188 194.988C213.164 192.199 219.871 190.805 227.309 190.805C233.551 190.805 239.328 191.734 244.641 193.594C250.086 195.32 254.203 197.445 256.992 199.969V222.281C253.938 220.156 250.086 218.098 245.438 216.105C240.922 214.113 236.141 213.117 231.094 213.117C226.312 213.117 222.527 214.18 219.738 216.305C216.949 218.43 215.555 220.953 215.555 223.875C215.555 226 216.352 227.992 217.945 229.852C219.672 231.578 222.727 233.105 227.109 234.434L238.465 238.219C246.301 240.477 252.078 243.863 255.797 248.379C259.516 252.762 261.375 258.207 261.375 264.715C261.375 270.824 259.582 276.336 255.996 281.25C252.543 286.164 247.828 290.016 241.852 292.805C236.008 295.594 229.5 296.988 222.328 296.988ZM324.527 296.988C318.551 296.988 313.105 295.66 308.191 293.004C303.41 290.348 299.625 286.629 296.836 281.848C294.047 276.934 292.652 271.156 292.652 264.516V214.512H275.918V201.562C282.426 199.305 287.738 195.121 291.855 189.012C296.105 182.902 299.824 175.266 303.012 166.102H317.953V193.395H348.234V214.512H317.953V257.941C317.953 262.457 319.082 266.043 321.34 268.699C323.73 271.223 327.184 272.484 331.699 272.484C335.684 272.484 339.137 271.887 342.059 270.691C344.98 269.496 347.57 268.234 349.828 266.906V288.422C347.438 290.945 344.051 293.004 339.668 294.598C335.418 296.191 330.371 296.988 324.527 296.988ZM419.156 296.391C410.391 296.391 402.555 294.664 395.648 291.211C388.875 287.758 383.496 282.844 379.512 276.469C375.66 269.961 373.734 262.258 373.734 253.359V193.395H399.434V248.777C399.434 256.48 401.227 262.324 404.812 266.309C408.531 270.16 413.312 272.086 419.156 272.086C425 272.086 429.715 270.16 433.301 266.309C437.02 262.324 438.879 256.48 438.879 248.777V193.395H464.578V253.359C464.578 262.258 462.586 269.961 458.602 276.469C454.617 282.844 449.172 287.758 442.266 291.211C435.492 294.664 427.789 296.391 419.156 296.391ZM531.516 296.988C523.547 296.988 516.109 294.93 509.203 290.812C502.43 286.695 496.918 280.719 492.668 272.883C488.551 265.047 486.492 255.551 486.492 244.395C486.492 233.105 488.551 223.477 492.668 215.508C496.918 207.539 502.562 201.43 509.602 197.18C516.773 192.93 524.676 190.805 533.309 190.805C538.887 190.805 544.398 192.066 549.844 194.59C555.422 197.113 560.07 200.5 563.789 204.75V150.562H589.09V294H563.789V277.066C560.867 282.512 556.617 287.227 551.039 291.211C545.461 295.062 538.953 296.988 531.516 296.988ZM537.891 271.688C542.406 271.688 546.59 270.492 550.441 268.102C554.426 265.711 557.68 262.324 560.203 257.941C562.727 253.559 563.922 248.379 563.789 242.402V228.059C560.203 224.207 556.285 221.219 552.035 219.094C547.918 216.836 543.402 215.707 538.488 215.707C533.176 215.707 528.594 217.102 524.742 219.891C521.023 222.547 518.102 226.066 515.977 230.449C513.852 234.699 512.789 239.348 512.789 244.395C512.789 249.309 513.852 253.891 515.977 258.141C518.102 262.258 521.023 265.578 524.742 268.102C528.594 270.492 532.977 271.688 537.891 271.688ZM640.887 175.266C636.105 175.266 631.988 173.539 628.535 170.086C625.082 166.633 623.355 162.648 623.355 158.133C623.355 153.352 625.082 149.301 628.535 145.98C631.988 142.66 636.105 141 640.887 141C644.074 141 646.996 141.797 649.652 143.391C652.309 144.852 654.434 146.91 656.027 149.566C657.621 152.09 658.418 154.945 658.418 158.133C658.418 161.055 657.621 163.844 656.027 166.5C654.434 169.156 652.309 171.281 649.652 172.875C646.996 174.469 644.074 175.266 640.887 175.266ZM630.727 294V193.395H656.027V294H630.727ZM614.59 214.91V193.395H656.027V214.91H614.59ZM734.121 296.988C726.816 296.988 719.91 295.66 713.402 293.004C707.027 290.215 701.316 286.43 696.27 281.648C691.223 276.867 687.305 271.289 684.516 264.914C681.727 258.406 680.332 251.434 680.332 243.996C680.332 236.559 681.727 229.652 684.516 223.277C687.305 216.77 691.223 211.125 696.27 206.344C701.316 201.43 707.027 197.645 713.402 194.988C719.91 192.199 726.816 190.805 734.121 190.805C741.426 190.805 748.332 192.199 754.84 194.988C761.348 197.645 767.059 201.43 771.973 206.344C777.02 211.125 780.938 216.77 783.727 223.277C786.648 229.652 788.109 236.559 788.109 243.996C788.109 251.434 786.648 258.406 783.727 264.914C780.938 271.289 777.02 276.867 771.973 281.648C767.059 286.43 761.348 290.215 754.84 293.004C748.332 295.66 741.426 296.988 734.121 296.988ZM734.121 272.484C739.035 272.484 743.484 271.422 747.469 269.297C751.586 267.039 754.906 263.785 757.43 259.535C759.953 255.152 761.215 249.973 761.215 243.996C761.215 237.754 759.953 232.508 757.43 228.258C754.906 224.008 751.586 220.82 747.469 218.695C743.484 216.438 739.035 215.309 734.121 215.309C729.473 215.309 725.023 216.438 720.773 218.695C716.656 220.82 713.336 224.008 710.812 228.258C708.422 232.508 707.227 237.754 707.227 243.996C707.227 249.973 708.422 255.152 710.812 259.535C713.336 263.785 716.656 267.039 720.773 269.297C725.023 271.422 729.473 272.484 734.121 272.484Z" fill="white"/>
<path d="M133.299 208.503L52.4644 289.338C49.4343 292.335 45.3415 294.011 41.0799 294C36.8182 293.989 32.7339 292.293 29.7188 289.281C26.6972 286.256 25 282.155 25 277.88C25 273.604 26.6972 269.503 29.7188 266.478L110.497 185.701M104.796 180L139 214.204M81.9937 259.809H36.3886" stroke="white" stroke-width="19" stroke-linecap="round" stroke-linejoin="round"/>
</svg>
