<svg width="771" height="259" viewBox="0 0 771 259" fill="none" xmlns="http://www.w3.org/2000/svg">
<path d="M80.7682 129.505C80.7682 134.325 84.6752 138.232 89.4948 138.232C94.3143 138.232 98.2213 134.325 98.2213 129.505C98.2213 124.686 94.3143 120.779 89.4948 120.779C84.6752 120.779 80.7682 124.686 80.7682 129.505ZM80.7682 129.505H89.4948M17.9419 201.058C0.13968 183.343 17.7674 136.83 57.2116 97.2116C96.8303 57.7674 143.343 40.1397 161.058 57.9419C178.86 75.6569 161.233 122.17 121.788 161.788C82.1697 201.233 35.6569 218.86 17.9419 201.058ZM57.2116 161.788C17.7674 122.17 0.13968 75.6569 17.9419 57.9419C35.6569 40.1397 82.1697 57.7674 121.788 97.2116C161.233 136.83 178.86 183.343 161.058 201.058C143.343 218.86 96.8303 201.233 57.2116 161.788Z" stroke="white" stroke-width="21" stroke-linecap="round" stroke-linejoin="round"/>
<path d="M207 57.0249H231.084V190.156H298.876V212.233H207V57.0249Z" fill="white"/>
<path d="M392.553 212.233L389.654 196.846C378.504 208.888 365.124 214.909 349.514 214.909C338.513 214.909 329.519 211.936 322.531 205.989C315.544 199.894 312.05 191.866 312.05 181.905C312.05 168.971 317.105 159.233 327.214 152.692C337.324 146.002 350.927 142.657 368.023 142.657C375.011 142.657 381.552 142.954 387.647 143.549V137.305C387.647 129.872 385.566 124.148 381.403 120.134C377.389 116.12 371.666 114.113 364.232 114.113C356.056 114.113 348.548 115.302 341.709 117.681C335.019 120.06 327.958 123.851 320.524 129.054V106.754C327.363 101.848 334.425 98.3543 341.709 96.2729C349.143 94.1916 357.468 93.1509 366.685 93.1509C380.66 93.1509 391.661 96.8676 399.689 104.301C407.717 111.586 411.731 121.695 411.731 134.629V186.365L416.637 212.233H392.553ZM353.751 195.731C360.144 195.731 366.016 194.393 371.368 191.717C376.869 188.892 382.295 184.804 387.647 179.452V160.497H366.685C357.319 160.497 350.035 161.984 344.831 164.957C339.628 167.93 337.026 172.985 337.026 180.121C337.026 185.027 338.513 188.892 341.486 191.717C344.46 194.393 348.548 195.731 353.751 195.731Z" fill="white"/>
<path d="M497.381 93.1509C507.342 93.1509 515.89 95.7526 523.026 100.956C530.311 106.159 535.886 113.37 539.751 122.587C543.616 131.804 545.549 142.36 545.549 154.253C545.549 166.295 543.393 176.85 539.082 185.919C534.771 194.988 528.527 202.049 520.35 207.104C512.322 212.159 502.882 214.686 492.029 214.686C486.826 214.686 481.92 214.091 477.311 212.902C472.702 211.861 467.722 210.152 462.37 207.773V212.233H438.286V44.0909H462.37V107.869C472.033 98.0569 483.704 93.1509 497.381 93.1509ZM489.576 193.947C499.685 193.947 507.267 190.453 512.322 183.466C517.376 176.479 519.904 166.741 519.904 154.253C519.904 141.765 517.897 132.027 513.883 125.04C509.869 118.053 503.551 114.559 494.928 114.559C488.981 114.559 483.332 115.897 477.98 118.573C472.776 121.1 467.573 124.966 462.37 130.169V190.156C470.398 192.683 479.466 193.947 489.576 193.947Z" fill="white"/>
<path d="M602.781 214.909C595.497 214.909 588.212 213.868 580.927 211.787C573.791 209.557 567.101 206.435 560.857 202.421V178.56C567.845 183.912 574.535 187.852 580.927 190.379C587.469 192.906 594.307 194.17 601.443 194.17C609.025 194.17 614.972 192.832 619.283 190.156C623.595 187.48 625.75 183.838 625.75 179.229C625.75 174.472 623.743 170.978 619.729 168.748C615.864 166.518 609.694 164.288 601.22 162.058C593.044 159.977 586.354 157.821 581.15 155.591C576.096 153.361 571.71 150.016 567.993 145.556C564.277 141.096 562.418 135.075 562.418 127.493C562.418 117.086 566.507 108.761 574.683 102.517C583.009 96.2729 593.936 93.1509 607.464 93.1509C620.547 93.1509 632.515 96.4959 643.367 103.186V126.378C637.421 121.918 631.697 118.722 626.196 116.789C620.844 114.856 615.046 113.89 608.802 113.89C601.666 113.89 596.091 115.005 592.077 117.235C588.063 119.465 586.056 122.661 586.056 126.824C586.056 130.987 587.915 134.109 591.631 136.19C595.348 138.123 601.369 140.204 609.694 142.434C618.02 144.664 624.784 146.894 629.987 149.124C635.191 151.205 639.651 154.625 643.367 159.382C647.233 164.139 649.165 170.458 649.165 178.337C649.165 185.473 647.158 191.791 643.144 197.292C639.279 202.793 633.778 207.104 626.642 210.226C619.655 213.348 611.701 214.909 602.781 214.909Z" fill="white"/>
<path d="M770.031 161.612H688.19C689.38 171.87 692.948 179.972 698.894 185.919C704.99 191.717 713.166 194.616 723.424 194.616C730.114 194.616 736.953 193.352 743.94 190.825C750.928 188.149 757.692 184.358 764.233 179.452H765.125V201.083C752.786 210.3 738.811 214.909 723.201 214.909C711.159 214.909 700.678 212.382 691.758 207.327C682.838 202.272 676 195.136 671.242 185.919C666.485 176.553 664.106 165.775 664.106 153.584C664.106 141.839 666.262 131.433 670.573 122.364C675.033 113.147 681.352 106.011 689.528 100.956C697.705 95.7526 707.22 93.1509 718.072 93.1509C728.776 93.1509 737.994 95.7526 745.724 100.956C753.604 106.011 759.625 113.147 763.787 122.364C767.95 131.581 770.031 142.137 770.031 154.03V161.612ZM718.072 112.775C709.896 112.775 703.206 115.674 698.002 121.472C692.799 127.121 689.603 134.703 688.413 144.218H745.278C744.089 134.406 741.19 126.75 736.581 121.249C732.121 115.6 725.952 112.775 718.072 112.775Z" fill="white"/>
</svg>
